<?xml version="1.0" encoding="UTF-8" standalone="no"?>
<!-- Created with Inkscape (http://www.inkscape.org/) -->

<svg
   xmlns:dc="http://purl.org/dc/elements/1.1/"
   xmlns:cc="http://creativecommons.org/ns#"
   xmlns:rdf="http://www.w3.org/1999/02/22-rdf-syntax-ns#"
   xmlns:svg="http://www.w3.org/2000/svg"
   xmlns="http://www.w3.org/2000/svg"
   xmlns:sodipodi="http://sodipodi.sourceforge.net/DTD/sodipodi-0.dtd"
   xmlns:inkscape="http://www.inkscape.org/namespaces/inkscape"
   version="1.1"
   id="svg2"
   xml:space="preserve"
   width="664.22266"
   height="589.38934"
   viewBox="0 0 664.22266 589.38934"
   sodipodi:docname="emails.svg"
   inkscape:version="0.92.5 (2060ec1f9f, 2020-04-08)"><metadata
     id="metadata8"><rdf:RDF><cc:Work
         rdf:about=""><dc:format>image/svg+xml</dc:format><dc:type
           rdf:resource="http://purl.org/dc/dcmitype/StillImage" /><dc:title></dc:title></cc:Work></rdf:RDF></metadata><defs
     id="defs6"><clipPath
       clipPathUnits="userSpaceOnUse"
       id="clipPath18"><path
         d="m 360.499,202.356 18.324,-9.968 c -1.773,0.964 -3.444,2.104 -4.994,3.403 v 0 l -18.324,9.969 c 1.55,-1.3 3.221,-2.439 4.994,-3.404"
         id="path16"
         inkscape:connector-curvature="0" /></clipPath><clipPath
       clipPathUnits="userSpaceOnUse"
       id="clipPath30"><path
         d="M 0,442.042 H 498.167 V 0 H 0 Z"
         id="path28"
         inkscape:connector-curvature="0" /></clipPath><clipPath
       clipPathUnits="userSpaceOnUse"
       id="clipPath54"><path
         d="m 180.129,307.187 -0.277,-149.003 145.622,20.466 0.277,149.003 z"
         id="path52"
         inkscape:connector-curvature="0" /></clipPath></defs><sodipodi:namedview
     pagecolor="#ffffff"
     bordercolor="#666666"
     borderopacity="1"
     objecttolerance="10"
     gridtolerance="10"
     guidetolerance="10"
     inkscape:pageopacity="0"
     inkscape:pageshadow="2"
     inkscape:window-width="1371"
     inkscape:window-height="766"
     id="namedview4"
     showgrid="false"
     inkscape:zoom="0.40041443"
     inkscape:cx="332.11133"
     inkscape:cy="294.69467"
     inkscape:window-x="0"
     inkscape:window-y="0"
     inkscape:window-maximized="0"
     inkscape:current-layer="g10" /><g
     id="g10"
     inkscape:groupmode="layer"
     inkscape:label="Web Puzzlers Icons Svg"
     transform="matrix(1.3333333,0,0,-1.3333333,0,589.38933)"><g
       id="g12"><g
         id="g14"
         clip-path="url(#clipPath18)"><g
           id="g20"
           transform="translate(378.823,192.3874)"><path
             d="m 0,0 -18.325,9.968 c -1.773,0.965 -3.443,2.105 -4.993,3.404 L -4.993,3.404 C -3.444,2.105 -1.773,0.965 0,0"
             style="fill:#6d6101;fill-opacity:1;fill-rule:nonzero;stroke:none"
             id="path22"
             inkscape:connector-curvature="0" /></g></g></g><g
       id="g24"
       transform="matrix(1.3969147,0,0,1.3969147,-109.78112,-87.726517)"><g
         id="g26"
         clip-path="url(#clipPath30)"><g
           id="g32"
           transform="translate(407.886,267.1021)"><path
             d="m 0,0 c 0.33,-0.05 0.659,-0.105 0.986,-0.166 0.162,-0.03 0.324,-0.062 0.486,-0.095 0.325,-0.066 0.648,-0.138 0.97,-0.215 0.141,-0.034 0.283,-0.065 0.424,-0.101 0.259,-0.065 0.514,-0.14 0.77,-0.212 0.242,-0.068 0.484,-0.133 0.723,-0.207 0.247,-0.076 0.49,-0.161 0.734,-0.243 0.236,-0.08 0.473,-0.157 0.707,-0.242 0.239,-0.088 0.475,-0.184 0.712,-0.277 0.232,-0.092 0.466,-0.181 0.695,-0.279 0.234,-0.099 0.464,-0.206 0.695,-0.311 0.225,-0.103 0.452,-0.203 0.674,-0.311 0.412,-0.2 0.819,-0.406 1.22,-0.624 L -8.529,6.686 c -0.36,0.196 -0.726,0.385 -1.095,0.566 -0.041,0.02 -0.083,0.037 -0.124,0.057 -0.222,0.108 -0.448,0.208 -0.673,0.31 -0.232,0.106 -0.463,0.214 -0.698,0.313 -0.228,0.097 -0.46,0.186 -0.69,0.277 -0.238,0.094 -0.475,0.19 -0.716,0.278 -0.234,0.086 -0.472,0.163 -0.71,0.243 -0.242,0.082 -0.484,0.166 -0.729,0.242 -0.24,0.074 -0.484,0.14 -0.727,0.208 -0.2,0.056 -0.397,0.119 -0.598,0.172 -0.056,0.014 -0.113,0.025 -0.169,0.04 -0.141,0.035 -0.283,0.067 -0.425,0.1 -0.321,0.077 -0.645,0.149 -0.97,0.216 -0.161,0.032 -0.323,0.064 -0.485,0.094 -0.326,0.061 -0.655,0.116 -0.986,0.166 -0.147,0.023 -0.294,0.048 -0.443,0.068 -0.473,0.066 -0.95,0.123 -1.431,0.168 -2.479,0.256 -5.047,0.215 -7.688,-0.157 C -28.418,9.973 -28.948,9.882 -29.475,9.783 -29.637,9.753 -29.798,9.718 -29.96,9.685 -30.332,9.61 -30.702,9.53 -31.07,9.443 -31.247,9.402 -31.424,9.359 -31.6,9.315 -31.982,9.219 -32.362,9.116 -32.74,9.007 -32.88,8.967 -33.021,8.93 -33.16,8.889 -33.671,8.736 -34.179,8.573 -34.683,8.398 -34.775,8.366 -34.866,8.33 -34.958,8.298 -35.372,8.151 -35.783,7.997 -36.192,7.835 -36.356,7.771 -36.518,7.703 -36.68,7.637 -37.026,7.494 -37.37,7.347 -37.711,7.195 -37.874,7.123 -38.037,7.05 -38.198,6.976 -38.291,6.933 -38.385,6.894 -38.477,6.851 -38.682,6.754 -38.882,6.648 -39.085,6.548 -39.319,6.433 -39.553,6.319 -39.784,6.2 c -0.286,-0.148 -0.568,-0.303 -0.85,-0.458 -0.225,-0.123 -0.451,-0.243 -0.674,-0.371 -0.285,-0.163 -0.565,-0.334 -0.847,-0.504 -0.214,-0.13 -0.43,-0.256 -0.643,-0.39 -0.289,-0.182 -0.573,-0.373 -0.858,-0.562 -0.199,-0.132 -0.401,-0.26 -0.598,-0.396 -0.027,-0.019 -0.055,-0.036 -0.082,-0.055 -0.06,-0.041 -0.117,-0.088 -0.177,-0.13 -0.621,-0.435 -1.231,-0.889 -1.831,-1.357 -0.137,-0.107 -0.275,-0.212 -0.41,-0.32 -0.641,-0.512 -1.269,-1.042 -1.883,-1.591 -0.042,-0.037 -0.086,-0.07 -0.127,-0.107 -0.097,-0.087 -0.188,-0.182 -0.284,-0.27 -0.42,-0.384 -0.834,-0.777 -1.24,-1.179 -0.152,-0.149 -0.304,-0.298 -0.454,-0.45 -0.521,-0.528 -1.034,-1.066 -1.532,-1.62 l 18.325,-9.969 c 0.497,0.555 1.011,1.092 1.532,1.621 0.149,0.152 0.302,0.3 0.453,0.45 0.407,0.401 0.821,0.794 1.241,1.179 0.137,0.125 0.272,0.253 0.41,0.377 0.614,0.548 1.242,1.078 1.883,1.59 0.136,0.109 0.274,0.214 0.411,0.321 0.6,0.468 1.21,0.922 1.831,1.356 0.087,0.061 0.171,0.126 0.259,0.186 0.197,0.135 0.398,0.264 0.598,0.396 0.285,0.189 0.569,0.38 0.858,0.562 0.212,0.133 0.428,0.26 0.643,0.389 0.281,0.171 0.562,0.342 0.847,0.505 0.223,0.128 0.45,0.249 0.675,0.372 0.282,0.154 0.563,0.309 0.847,0.456 0.232,0.12 0.467,0.234 0.701,0.349 0.295,0.145 0.589,0.29 0.886,0.427 0.162,0.075 0.325,0.147 0.487,0.22 0.342,0.152 0.686,0.299 1.031,0.441 0.163,0.067 0.325,0.134 0.488,0.199 0.409,0.161 0.821,0.315 1.234,0.462 0.092,0.033 0.183,0.069 0.276,0.101 0.503,0.175 1.011,0.337 1.521,0.49 0.141,0.042 0.284,0.08 0.425,0.12 0.377,0.108 0.755,0.211 1.135,0.306 0.177,0.045 0.354,0.087 0.532,0.129 0.368,0.087 0.737,0.167 1.108,0.242 0.163,0.032 0.325,0.067 0.488,0.098 0.527,0.099 1.056,0.189 1.588,0.264 2.64,0.371 5.209,0.413 7.687,0.156 C -1.392,0.191 -0.915,0.133 -0.441,0.068 -0.293,0.047 -0.147,0.023 0,0"
             style="fill:#6d6101;fill-opacity:1;fill-rule:nonzero;stroke:none"
             id="path34"
             inkscape:connector-curvature="0" /></g><g
           id="g36"
           transform="translate(299.0192,134.0493)"><path
             d="M 0,0 -18.325,9.968 C -3.577,1.946 7.345,-12.558 11.537,-30.802 L 29.861,-40.77 C 25.67,-22.526 14.748,-8.023 0,0"
             style="fill:#6d6101;fill-opacity:1;fill-rule:nonzero;stroke:none"
             id="path38"
             inkscape:connector-curvature="0" /></g><g
           id="g40"
           transform="translate(374.1472,366.7815)"><path
             d="m 0,0 -0.21,-113.208 c 6.477,7.227 15.037,12.293 24.387,13.608 2.641,0.371 5.21,0.412 7.688,0.156 16.292,-1.491 28.474,-15.428 28.439,-34.139 -0.035,-18.691 -12.274,-36.06 -28.581,-42.16 -2.48,-0.954 -5.05,-1.627 -7.691,-1.999 -9.351,-1.314 -17.896,1.342 -24.35,6.752 l -0.178,-96.221 -44.771,-6.292 c -7.185,31.276 -34.149,51.557 -66.259,47.045 -32.109,-4.513 -59.189,-32.39 -66.468,-65.698 l -66.409,-9.333 0.415,223.205 c 0.045,24.306 18.332,46.57 40.846,49.734 z"
             style="fill:#958602;fill-opacity:1;fill-rule:nonzero;stroke:none"
             id="path42"
             inkscape:connector-curvature="0" /></g><g
           id="g44"
           transform="translate(130.3755,292.9926)"><path
             d="m 0,0 c 0.028,0.298 0.07,0.593 0.103,0.889 0.05,0.445 0.095,0.892 0.157,1.334 0.043,0.312 0.1,0.62 0.15,0.93 0.067,0.425 0.13,0.851 0.208,1.273 0.059,0.32 0.131,0.636 0.197,0.955 0.083,0.408 0.162,0.817 0.255,1.222 0.076,0.326 0.164,0.648 0.245,0.973 0.099,0.393 0.193,0.787 0.301,1.177 0.09,0.327 0.193,0.65 0.29,0.974 0.114,0.383 0.223,0.767 0.346,1.146 0.105,0.326 0.222,0.647 0.333,0.97 0.13,0.377 0.256,0.755 0.394,1.128 0.072,0.194 0.15,0.385 0.224,0.578 0.174,0.453 0.352,0.906 0.538,1.354 0.098,0.236 0.201,0.47 0.302,0.704 0.175,0.404 0.353,0.805 0.538,1.204 0.112,0.242 0.225,0.482 0.341,0.722 0.19,0.395 0.385,0.786 0.584,1.176 0.117,0.227 0.232,0.456 0.352,0.681 0.123,0.233 0.253,0.461 0.38,0.691 0.365,0.666 0.744,1.323 1.136,1.971 0.119,0.197 0.235,0.395 0.357,0.59 0.491,0.789 1.001,1.566 1.531,2.326 0.107,0.154 0.22,0.303 0.328,0.455 0.414,0.58 0.838,1.151 1.274,1.713 0.164,0.212 0.33,0.423 0.498,0.632 0.449,0.562 0.909,1.113 1.38,1.654 0.116,0.133 0.228,0.271 0.345,0.403 0.585,0.66 1.187,1.302 1.803,1.928 0.156,0.159 0.316,0.312 0.474,0.468 0.484,0.481 0.977,0.951 1.478,1.41 0.187,0.171 0.373,0.342 0.562,0.51 0.697,0.618 1.404,1.223 2.131,1.799 0.062,0.049 0.126,0.094 0.188,0.143 0.676,0.531 1.367,1.038 2.067,1.531 0.258,0.181 0.516,0.362 0.778,0.538 0.238,0.161 0.478,0.321 0.719,0.477 0.334,0.217 0.672,0.427 1.011,0.635 0.24,0.147 0.481,0.295 0.724,0.438 0.354,0.208 0.713,0.408 1.072,0.606 0.233,0.129 0.465,0.26 0.7,0.385 0.396,0.21 0.797,0.409 1.199,0.606 0.204,0.1 0.405,0.205 0.609,0.302 0.566,0.268 1.138,0.523 1.714,0.766 0.144,0.061 0.289,0.117 0.434,0.176 0.453,0.185 0.909,0.363 1.369,0.533 0.178,0.066 0.356,0.132 0.536,0.195 0.518,0.184 1.04,0.358 1.565,0.522 0.083,0.026 0.164,0.054 0.247,0.079 0.603,0.184 1.211,0.351 1.822,0.506 0.168,0.043 0.337,0.082 0.506,0.122 0.467,0.113 0.937,0.218 1.409,0.314 0.181,0.037 0.362,0.075 0.543,0.109 0.625,0.119 1.252,0.228 1.883,0.316 L 243.772,73.789 225.447,83.757 22.306,55.207 C 21.674,55.119 21.047,55.01 20.423,54.891 20.241,54.857 20.06,54.819 19.88,54.782 19.408,54.686 18.938,54.582 18.47,54.469 18.302,54.428 18.133,54.39 17.965,54.347 17.354,54.191 16.745,54.024 16.143,53.841 16.06,53.816 15.978,53.787 15.896,53.761 15.37,53.598 14.849,53.423 14.33,53.239 14.151,53.176 13.973,53.11 13.794,53.045 13.335,52.875 12.879,52.697 12.425,52.511 12.281,52.452 12.135,52.396 11.992,52.335 11.453,52.108 10.918,51.873 10.388,51.624 10.351,51.607 10.315,51.587 10.278,51.57 10.073,51.473 9.872,51.368 9.669,51.268 9.267,51.07 8.865,50.871 8.469,50.661 8.234,50.537 8.002,50.405 7.769,50.276 7.41,50.078 7.051,49.878 6.697,49.67 6.455,49.527 6.215,49.38 5.975,49.233 5.635,49.025 5.296,48.814 4.961,48.597 4.721,48.441 4.482,48.282 4.245,48.122 4.086,48.015 3.924,47.914 3.767,47.806 3.664,47.734 3.567,47.653 3.464,47.581 2.765,47.09 2.076,46.583 1.401,46.054 1.338,46.004 1.273,45.958 1.21,45.908 0.484,45.332 -0.223,44.728 -0.919,44.11 -0.998,44.04 -1.083,43.976 -1.161,43.905 -1.272,43.806 -1.374,43.698 -1.484,43.598 -1.985,43.139 -2.477,42.67 -2.96,42.19 -3.118,42.033 -3.279,41.881 -3.435,41.722 -4.05,41.095 -4.652,40.453 -5.238,39.793 c -0.027,-0.03 -0.056,-0.058 -0.083,-0.089 -0.089,-0.101 -0.171,-0.21 -0.26,-0.312 -0.471,-0.542 -0.932,-1.093 -1.381,-1.655 -0.168,-0.21 -0.334,-0.421 -0.499,-0.633 -0.435,-0.562 -0.86,-1.133 -1.273,-1.713 -0.083,-0.116 -0.174,-0.226 -0.256,-0.343 -0.025,-0.037 -0.048,-0.075 -0.073,-0.111 -0.53,-0.761 -1.04,-1.538 -1.531,-2.327 -0.121,-0.194 -0.237,-0.392 -0.355,-0.588 -0.394,-0.649 -0.773,-1.307 -1.139,-1.974 -0.072,-0.131 -0.152,-0.255 -0.223,-0.387 -0.053,-0.099 -0.102,-0.201 -0.155,-0.301 -0.12,-0.227 -0.236,-0.455 -0.352,-0.683 -0.2,-0.39 -0.395,-0.781 -0.585,-1.176 -0.115,-0.24 -0.229,-0.48 -0.341,-0.722 -0.184,-0.398 -0.362,-0.799 -0.536,-1.202 -0.102,-0.235 -0.205,-0.47 -0.304,-0.707 -0.186,-0.446 -0.362,-0.897 -0.536,-1.349 -0.075,-0.195 -0.153,-0.388 -0.226,-0.583 -0.017,-0.046 -0.036,-0.091 -0.053,-0.137 -0.119,-0.324 -0.224,-0.654 -0.337,-0.98 -0.113,-0.327 -0.231,-0.651 -0.337,-0.98 -0.121,-0.376 -0.23,-0.756 -0.343,-1.135 -0.097,-0.328 -0.201,-0.655 -0.293,-0.986 -0.107,-0.387 -0.2,-0.779 -0.299,-1.169 -0.082,-0.327 -0.17,-0.652 -0.246,-0.98 -0.093,-0.402 -0.171,-0.808 -0.254,-1.213 -0.066,-0.322 -0.139,-0.642 -0.199,-0.965 -0.078,-0.419 -0.139,-0.841 -0.206,-1.263 -0.05,-0.313 -0.108,-0.624 -0.152,-0.938 -0.061,-0.443 -0.107,-0.889 -0.156,-1.334 -0.034,-0.297 -0.076,-0.592 -0.104,-0.89 -0.046,-0.498 -0.075,-0.999 -0.107,-1.5 -0.016,-0.247 -0.04,-0.492 -0.052,-0.739 -0.036,-0.75 -0.056,-1.502 -0.057,-2.256 l -0.415,-223.205 18.325,-9.968 0.415,223.204 c 0.001,0.755 0.02,1.507 0.056,2.256 0.012,0.248 0.037,0.493 0.053,0.74 0.031,0.501 0.06,1.002 0.107,1.5"
             style="fill:#6d6101;fill-opacity:1;fill-rule:nonzero;stroke:none"
             id="path46"
             inkscape:connector-curvature="0" /></g></g></g><g
       id="g48"
       transform="matrix(1.3969147,0,0,1.3969147,-109.78112,-87.726517)"><g
         id="g50"
         clip-path="url(#clipPath54)"><g
           id="g56"
           transform="translate(257.4456,318.0532)"><path
             d="m 0,0 -7.93,-1.115 c -1.434,-0.201 -2.598,-1.627 -2.601,-3.183 -0.011,-5.699 -4.348,-10.079 -8.858,-10.713 -2.154,-0.303 -4.346,0.248 -6.126,1.917 -0.503,0.483 -1.168,0.666 -1.835,0.572 -0.667,-0.094 -1.336,-0.464 -1.85,-1.09 l -5.61,-6.83 c -1.02,-1.241 -1.023,-3.014 -0.008,-3.969 5.516,-5.18 1.581,-15.924 -6.222,-17.02 -1.442,-0.203 -2.614,-1.63 -2.616,-3.186 l -0.016,-8.551 c -0.002,-0.735 0.254,-1.356 0.685,-1.788 0.472,-0.495 1.152,-0.754 1.921,-0.646 7.802,1.097 11.684,-8.566 6.162,-15.289 -1.019,-1.241 -1.023,-3.013 -0.007,-3.968 l 5.588,-5.265 c 0.512,-0.473 1.18,-0.651 1.847,-0.558 0.667,0.094 1.332,0.46 1.838,1.075 1.788,2.183 3.986,3.356 6.14,3.659 4.509,0.633 8.829,-2.542 8.819,-8.246 -0.003,-1.557 1.156,-2.638 2.59,-2.437 l 7.93,1.115 c 1.426,0.2 2.598,1.609 2.601,3.166 0.01,5.699 4.351,10.087 8.861,10.721 2.153,0.303 4.345,-0.251 6.122,-1.925 0.508,-0.474 1.173,-0.652 1.837,-0.559 0.665,0.093 1.331,0.459 1.841,1.075 l 5.618,6.841 c 1.019,1.232 1.023,3.013 0.007,3.968 -5.508,5.173 -1.572,15.934 6.23,17.03 0.721,0.102 1.371,0.504 1.844,1.089 0.458,0.575 0.755,1.308 0.757,2.077 l 0.016,8.551 c 0.003,1.557 -1.156,2.656 -2.59,2.454 -7.802,-1.096 -11.701,8.547 -6.17,15.279 1.019,1.233 1.022,3.014 0.007,3.969 l -5.596,5.255 c -0.504,0.483 -1.168,0.666 -1.834,0.572 -0.666,-0.093 -1.333,-0.464 -1.843,-1.089 -1.784,-2.169 -3.979,-3.337 -6.132,-3.64 C 6.906,-11.315 2.58,-8.154 2.59,-2.454 2.593,-0.897 1.426,0.2 0,0 m -4.077,-60.759 c -6.897,-0.969 -12.8,2.869 -15.087,9.125 -0.685,1.823 -1.05,3.864 -1.046,6.042 0.018,9.632 7.274,18.465 16.198,19.72 8.915,1.253 16.142,-5.546 16.124,-15.177 -0.004,-2.196 -0.376,-4.332 -1.077,-6.366 C 8.708,-54.294 2.82,-59.789 -4.077,-60.759"
             style="fill:#ffffff;fill-opacity:1;fill-rule:nonzero;stroke:none"
             id="path58"
             inkscape:connector-curvature="0" /></g><g
           id="g60"
           transform="translate(271.6884,216.85)"><path
             d="m 0,0 -16.779,-17.934 c -0.577,-0.617 -1.299,-0.986 -2.012,-1.087 -0.721,-0.101 -1.449,0.065 -2.025,0.537 l -16.473,13.218 -48.355,-52.513 0.208,0.012 132.821,18.676 c 0.449,0.063 0.881,0.167 1.306,0.33 z"
             style="fill:#ffffff;fill-opacity:1;fill-rule:nonzero;stroke:none"
             id="path62"
             inkscape:connector-curvature="0" /></g><g
           id="g64"
           transform="translate(180.7521,254.6696)"><path
             d="m 0,0 c -0.459,-1.024 -0.725,-2.142 -0.727,-3.292 l -0.16,-86.286 c -0.01,-1.151 0.26,-2.202 0.731,-3.104 l 49.126,53.355 z"
             style="fill:#ffffff;fill-opacity:1;fill-rule:nonzero;stroke:none"
             id="path66"
             inkscape:connector-curvature="0" /></g><g
           id="g68"
           transform="translate(325.2667,274.1241)"><path
             d="m 0,0 -48.852,-52.219 48.675,-38.754 c 0.25,0.77 0.396,1.585 0.397,2.415 L 0.38,-2.28 C 0.382,-1.459 0.239,-0.693 0,0"
             style="fill:#ffffff;fill-opacity:1;fill-rule:nonzero;stroke:none"
             id="path70"
             inkscape:connector-curvature="0" /></g><g
           id="g72"
           transform="translate(186.4383,259.1855)"><path
             d="m 0,0 -0.232,-0.041 66.706,-53.577 67.652,72.321 -22.701,-3.164 c -0.824,-3.738 -3.873,-6.863 -7.47,-7.369 -2.21,-0.31 -3.119,-2.149 -3.401,-2.932 -0.281,-0.766 -0.773,-2.737 0.793,-4.202 2.982,-2.822 2.972,-8.096 -0.021,-11.741 l -5.627,-6.833 c -1.453,-1.786 -3.385,-2.913 -5.435,-3.201 -2.059,-0.289 -3.996,0.294 -5.443,1.672 -0.727,0.667 -1.56,0.948 -2.521,0.813 -1.562,-0.22 -3.751,-1.763 -3.756,-4.513 -0.009,-4.573 -3.468,-8.785 -7.706,-9.38 l -7.93,-1.115 c -4.237,-0.596 -7.675,2.647 -7.667,7.22 0.005,2.758 -2.179,3.687 -3.733,3.469 -0.969,-0.136 -1.819,-0.653 -2.55,-1.534 -1.452,-1.786 -3.385,-2.913 -5.435,-3.201 -2.067,-0.291 -3.98,0.296 -5.443,1.672 l -5.588,5.257 c -1.447,1.361 -2.244,3.332 -2.24,5.563 0.004,2.222 0.809,4.409 2.27,6.179 1.557,1.905 1.08,3.739 0.785,4.424 -0.279,0.704 -1.165,2.291 -3.376,1.98 -3.644,-0.512 -6.691,1.808 -7.47,5.364 z"
             style="fill:#ffffff;fill-opacity:1;fill-rule:nonzero;stroke:none"
             id="path74"
             inkscape:connector-curvature="0" /></g></g></g></g></svg>