<?xml version="1.0" encoding="UTF-8" standalone="no"?>
<svg
   xmlns:dc="http://purl.org/dc/elements/1.1/"
   xmlns:cc="http://creativecommons.org/ns#"
   xmlns:rdf="http://www.w3.org/1999/02/22-rdf-syntax-ns#"
   xmlns:svg="http://www.w3.org/2000/svg"
   xmlns="http://www.w3.org/2000/svg"
   xmlns:sodipodi="http://sodipodi.sourceforge.net/DTD/sodipodi-0.dtd"
   xmlns:inkscape="http://www.inkscape.org/namespaces/inkscape"
   id="Layer_1"
   data-name="Layer 1"
   viewBox="0 0 498.17 437.04"
   version="1.1"
   sodipodi:docname="Web Puzzlers Icons Svg_Email Icon Flat Icon.svg"
   width="498.17001"
   height="437.04001"
   inkscape:version="0.92.5 (2060ec1f9f, 2020-04-08)">
  <metadata
     id="metadata19">
    <rdf:RDF>
      <cc:Work
         rdf:about="">
        <dc:format>image/svg+xml</dc:format>
        <dc:type
           rdf:resource="http://purl.org/dc/dcmitype/StillImage" />
        <dc:title></dc:title>
      </cc:Work>
    </rdf:RDF>
  </metadata>
  <sodipodi:namedview
     pagecolor="#060000"
     bordercolor="#666666"
     borderopacity="1"
     objecttolerance="10"
     gridtolerance="10"
     guidetolerance="10"
     inkscape:pageopacity="0"
     inkscape:pageshadow="2"
     inkscape:window-width="1356"
     inkscape:window-height="820"
     id="namedview17"
     showgrid="false"
     inkscape:zoom="0.53388833"
     inkscape:cx="249.08501"
     inkscape:cy="221.02"
     inkscape:window-x="164"
     inkscape:window-y="55"
     inkscape:window-maximized="0"
     inkscape:current-layer="Layer_1" />
  <defs
     id="defs4">
    <style
       id="style2">.cls-1,.cls-2{fill:#fff;}.cls-1{fill-rule:evenodd;}</style>
  </defs>
  <path
     class="cls-1"
     d="m 361.2832,107.67971 c -23.91169,0 -35.91743,-28.916869 -18.98967,-45.844614 a 7.9650227,7.9650227 0 0 0 0,-11.25746 L 325.09971,33.41709 a 7.9816511,7.9816511 0 0 0 -11.27408,0 c -16.87786,16.877869 -45.84461,4.988532 -45.84461,-18.989677 a 7.9816511,7.9816511 0 0 0 -7.94839,-7.9816502 h -24.29415 a 7.9650227,7.9650227 0 0 0 -7.94839,7.9816502 c 0,23.911695 -28.96675,35.867546 -45.87787,18.989677 a 7.9816511,7.9816511 0 0 0 -11.27408,0 l -17.14392,17.160546 a 7.9317658,7.9317658 0 0 0 0,11.25746 c 16.91112,16.927745 4.98852,45.844614 -18.98968,45.844614 a 8.014908,8.014908 0 0 0 -7.99828,7.99827 v 24.29416 a 7.7155961,7.7155961 0 0 0 2.1118,5.33772 7.9151374,7.9151374 0 0 0 5.88648,2.61066 c 23.89506,0 35.86754,28.96675 18.98968,45.84461 a 7.9483943,7.9483943 0 0 0 0,11.27409 l 17.14392,17.17717 a 8.014908,8.014908 0 0 0 11.27408,0 c 16.91112,-16.94437 45.87787,-4.98852 45.87787,18.98968 a 7.9317658,7.9317658 0 0 0 7.94839,7.9484 h 24.29415 a 7.9483943,7.9483943 0 0 0 7.94839,-7.9484 c 0,-23.89506 28.96675,-35.9008 45.84461,-18.98968 a 8.014908,8.014908 0 0 0 11.27408,0 l 17.19382,-17.17717 a 7.9816511,7.9816511 0 0 0 0,-11.27409 c -16.92776,-16.87786 -4.98854,-45.84461 18.98967,-45.84461 a 7.7987383,7.7987383 0 0 0 5.63704,-2.37786 7.9483943,7.9483943 0 0 0 2.31136,-5.57052 v -24.29416 a 7.9816511,7.9816511 0 0 0 -7.9484,-7.99827 z m -113.42259,69.6399 a 49.45298,49.45298 0 0 1 -46.26032,-31.9266 48.688072,48.688072 0 0 1 -3.24254,-17.5929 49.519495,49.519495 0 0 1 99.02236,0 48.222476,48.222476 0 0 1 -3.32569,17.65941 49.502865,49.502865 0 0 1 -46.19381,31.86009 z"
     id="path6"
     inkscape:connector-curvature="0"
     style="fill:#ffffff;fill-rule:evenodd;stroke-width:1.66284406" />
  <path
     class="cls-1"
     d="M 42.782075,429.34024 H 42.150187 L 190.0269,299.53864 240.56073,343.6539 a 9.4283255,9.4283255 0 0 0 12.37155,0 l 51.34863,-44.21503 149.40653,129.48566 a 18.457568,18.457568 0 0 1 -3.99082,0.41571 z"
     id="path8"
     inkscape:connector-curvature="0"
     style="fill:#ffffff;fill-rule:evenodd;stroke-width:1.66284406" />
  <path
     class="cls-1"
     d="M 25.421977,418.84769 175.65993,286.96754 25.388727,155.8024 a 19.521788,19.521788 0 0 0 -2.228218,9.04588 v 244.88703 a 19.405389,19.405389 0 0 0 2.261468,9.11238 z"
     id="path10"
     inkscape:connector-curvature="0"
     style="fill:#ffffff;fill-rule:evenodd;stroke-width:1.66284406" />
  <path
     class="cls-1"
     d="m 469.28491,164.84828 a 19.954128,19.954128 0 0 0 -1.18061,-6.65137 l -149.40653,128.754 149.37327,129.45241 a 19.438646,19.438646 0 0 0 1.19725,-6.65138 z"
     id="path12"
     inkscape:connector-curvature="0"
     style="fill:#ffffff;fill-rule:evenodd;stroke-width:1.66284406" />
  <path
     class="cls-2"
     d="M 453.67081,145.65906 246.77977,323.96582 42.067045,145.25997 a 4.988532,4.988532 0 0 1 0.698399,0 l 68.808476,0.0832 a 23.595756,23.595756 0 0 0 22.93062,18.20815 11.307339,11.307339 0 0 1 7.98165,19.22247 23.529243,23.529243 0 0 0 0,33.25688 l 17.12729,17.19381 a 23.562499,23.562499 0 0 0 33.25688,0 10.725344,10.725344 0 0 1 7.79874,-3.32569 11.323968,11.323968 0 0 1 11.45699,11.3406 23.579128,23.579128 0 0 0 23.54588,23.54586 h 24.29415 a 23.562499,23.562499 0 0 0 23.61238,-23.64564 11.323968,11.323968 0 0 1 11.50688,-11.30734 10.725344,10.725344 0 0 1 7.7156,3.3257 23.562499,23.562499 0 0 0 33.25687,0 l 17.19382,-17.16055 a 23.629013,23.629013 0 0 0 0,-33.25689 11.257454,11.257454 0 0 1 7.96502,-19.22248 23.529243,23.529243 0 0 0 22.88073,-17.94208 z"
     id="path14"
     inkscape:connector-curvature="0"
     style="fill:#ffffff;stroke-width:1.66284406" />
</svg>
